<?xml version="1.0" encoding="UTF-8"?>
<svg version="1.1" xmlns="http://www.w3.org/2000/svg" width="1225" height="244">
<path d="M0 0 C19.696875 -0.04125 39.39375 -0.0825 59.6875 -0.125 C68.9546106 -0.15231201 68.9546106 -0.15231201 78.40893555 -0.18017578 C86.05822754 -0.18920898 86.05822754 -0.18920898 89.65950012 -0.19088745 C92.13025131 -0.19392258 94.60099987 -0.20088003 97.07173157 -0.21115112 C162.02139217 -0.46723272 162.02139217 -0.46723272 183.81640625 20.68359375 C195.39983581 32.97156106 198.52468777 44.4304244 198.2734375 60.9296875 C197.7609705 74.68511367 190.66941224 84.92769485 181 94.23828125 C178.14673751 96.75160426 175.16281472 98.89145685 172 101 C172.97839844 101.4846875 173.95679688 101.969375 174.96484375 102.46875 C189.2166306 109.68562777 200.28109447 118.52531445 206 134 C205.97679687 133.45214844 205.95359375 132.90429688 205.9296875 132.33984375 C205.39863432 109.01143637 212.53451869 88.52854563 228.375 71.4375 C229.24125 70.633125 230.1075 69.82875 231 69 C231.69480469 68.32324219 232.38960937 67.64648438 233.10546875 66.94921875 C253.1185823 48.01789512 280.03824893 42.39455733 306.8515625 42.78515625 C330.78751383 43.51919209 354.03364225 50.77132107 372 67 C372.75667969 67.66386719 373.51335937 68.32773438 374.29296875 69.01171875 C385.41260321 79.36580178 391.30444214 91.82125665 396 106 C397.80974019 102.55044828 399.2270499 98.98411231 400.6875 95.375 C409.85095347 73.59519756 428.19841984 58.45768048 449.58984375 49.49609375 C478.02922354 39.15169393 511.54144721 40.43015212 539.16796875 52.59765625 C559.84227303 62.8350014 575.15783103 79.31870933 583 101 C583.15855469 99.88882813 583.31710937 98.77765625 583.48046875 97.6328125 C584.79249394 89.03304854 586.17556602 81.41508893 591 74 C591.48082031 73.24589844 591.96164062 72.49179688 592.45703125 71.71484375 C604.05906179 55.25746223 623.96484656 47.99071639 643.02197266 44.64501953 C671.66864495 40.00501701 704.27222244 42.29160193 731 54 C731 51.36 731 48.72 731 46 C738.59 46 746.18 46 754 46 C754 33.79 754 21.58 754 9 C776.77 9 799.54 9 823 9 C823 21.21 823 33.42 823 46 C833.89 46 844.78 46 856 46 C856 62.83 856 79.66 856 97 C845.11 97 834.22 97 823 97 C823.07401937 104.72353813 823.15687427 112.44592282 823.26245117 120.16894531 C823.29568038 122.79551191 823.3237185 125.42214957 823.34643555 128.04882812 C823.38001728 131.82713061 823.43233753 135.60478305 823.48828125 139.3828125 C823.49467117 140.55490265 823.5010611 141.7269928 823.50764465 142.93460083 C823.6123027 150.89978631 823.6123027 150.89978631 827 158 C831.47062872 161.11904329 835.68585427 161.70374086 841 161 C844.71616955 160.145821 848.35168573 159.10363338 852 158 C855.42909903 166.25079045 858.44686908 174.64118929 861.42871094 183.06103516 C862.2564295 185.39311497 863.0930269 187.72189693 863.9296875 190.05078125 C864.45888166 191.54147212 864.98754692 193.03235089 865.515625 194.5234375 C865.76556213 195.21513031 866.01549927 195.90682312 866.27301025 196.61947632 C867.45418604 199.98693135 868 202.37846884 868 206 C845.419577 216.81978602 817.24803678 217.43736908 793.53515625 209.8984375 C786.67567385 207.46265337 780.76003398 204.44345479 775 200 C774.31292969 199.48824219 773.62585938 198.97648438 772.91796875 198.44921875 C760.80734969 188.74682987 755.82810657 173.96748633 754 159 C753.91868372 156.83917036 753.88205262 154.67627063 753.88647461 152.51391602 C753.88655014 151.27315811 753.88662567 150.03240021 753.88670349 148.75404358 C753.89180846 147.42066405 753.89702443 146.08728494 753.90234375 144.75390625 C753.90421153 143.37385611 753.90563373 141.99380531 753.90663147 140.61375427 C753.91042832 137.00198498 753.92023406 133.39025665 753.93133545 129.77850342 C753.94161082 126.08476312 753.94614215 122.39101613 753.95117188 118.69726562 C753.96185918 111.46482302 753.97943267 104.23242249 754 97 C746.41 97 738.82 97 731 97 C730.67 89.08 730.34 81.16 730 73 C726.04 82.57 722.08 92.14 718 102 C713.55318058 101.11063612 710.19486353 99.89790303 706.0625 98.125 C690.07848788 91.51017816 669.96445021 87.93234475 653 93 C650.73209282 94.47796003 650.73209282 94.47796003 649 96 C649.33 97.65 649.66 99.3 650 101 C658.48570884 103.69383937 667.02387025 104.9529979 675.81884766 106.07662964 C697.14404132 108.83568663 719.00562467 111.82605698 734 129 C741.77045444 141.06592305 744.00528281 154.33717882 741.34765625 168.46875 C736.90059977 184.50105663 727.19391651 194.96897804 713 203 C695.41059277 212.32419385 676.52698213 214.40956452 656.9375 214.3125 C656.17131348 214.31067719 655.40512695 214.30885437 654.61572266 214.30697632 C634.28226801 214.22578003 597.50337902 213.50337902 582 198 C582.38274664 194.66717298 583.38605518 191.75040132 584.67407227 188.66870117 C585.01434952 187.848228 585.35462677 187.02775482 585.70521545 186.18241882 C586.07190842 185.3114003 586.43860138 184.44038177 586.81640625 183.54296875 C587.19232407 182.64000565 587.56824188 181.73704254 587.95555115 180.80671692 C589.15357006 177.93182925 590.35794045 175.05965246 591.5625 172.1875 C592.37737379 170.23520157 593.19183176 168.28272953 594.00585938 166.33007812 C595.99909212 161.55135966 597.9980242 156.77506191 600 152 C600.51959793 152.2269606 601.03919586 152.4539212 601.57453918 152.6877594 C615.31292722 158.7316884 615.31292722 158.7316884 629.6875 162.9375 C630.88922852 163.22850586 630.88922852 163.22850586 632.11523438 163.52539062 C640.5704431 165.51687826 648.77354285 166.20002764 657.4375 166.25 C658.32759766 166.270625 659.21769531 166.29125 660.13476562 166.3125 C665.88515077 166.34610342 671.96676102 166.08243297 677 163 C677.90202184 161.04447005 677.90202184 161.04447005 678 159 C676.45672981 156.60624149 675.15459069 156.04893008 672.4453125 155.19140625 C671.34960938 154.98386719 670.25390625 154.77632812 669.125 154.5625 C668.4956958 154.44181152 667.8663916 154.32112305 667.21801758 154.19677734 C661.33759418 153.12417516 655.4164551 152.38499602 649.48974609 151.61962891 C605.0789996 145.84229666 605.0789996 145.84229666 592 129 C590.14487377 126.08090432 588.50006252 123.11551447 587 120 C587.02320313 120.59683594 587.04640625 121.19367188 587.0703125 121.80859375 C587.59163893 146.86950015 581.1258927 168.2195719 564 187 C547.05682174 204.47460636 522.22578819 213.54570745 498.1875 214.3359375 C468.2104317 214.71235715 441.6233952 209.4854046 419.234375 188.23046875 C418.49703125 187.49441406 417.7596875 186.75835937 417 186 C416.30390625 185.31550781 415.6078125 184.63101563 414.890625 183.92578125 C405.98965477 174.59356246 400.43438802 163.33668328 397 151 C395.38268562 154.06274028 394.09483629 157.22377299 392.79394531 160.4309082 C384.02243367 181.6220602 367.79782829 196.90506961 347.125 206.3125 C319.61523869 217.47767934 286.16830338 217.88934088 258.66015625 206.6015625 C249.86922775 202.75494491 242.35623457 198.1460592 235 192 C234.33355469 191.47921875 233.66710937 190.9584375 232.98046875 190.421875 C221.33535472 180.95878431 213.44002805 167.19950999 209 153 C208.85304687 154.32451172 208.85304687 154.32451172 208.703125 155.67578125 C206.801074 170.94138024 202.37501329 183.0065676 190.375 193.25 C181.53158032 199.81211263 172.12426371 203.97828241 161.5625 206.8125 C160.47400757 207.10483521 160.47400757 207.10483521 159.36352539 207.40307617 C147.27147164 210.40065838 135.13690579 211.29972127 122.72094727 211.22705078 C121.3474348 211.22643587 119.9739217 211.2267089 118.60040951 211.2277813 C114.97340583 211.22822667 111.34653831 211.21676677 107.71956635 211.20256042 C104.29672388 211.19103852 100.87391194 211.1906271 97.4510498 211.18920898 C87.48818234 211.17877888 77.52533937 211.15085641 67.5625 211.125 C45.266875 211.08375 22.97125 211.0425 0 211 C0 141.37 0 71.74 0 0 Z M71 51 C71 60.9 71 70.8 71 81 C76.53229812 81.06918576 82.06307161 81.12882361 87.59545898 81.16479492 C89.4740917 81.17980333 91.35268984 81.20021652 93.23120117 81.22631836 C95.94458593 81.26305386 98.6575041 81.27980607 101.37109375 81.29296875 C102.19959335 81.30845261 103.02809296 81.32393646 103.88169861 81.33988953 C109.99930608 81.34162196 116.82719685 80.75725375 121.63035583 76.58317566 C124.62679982 73.11957737 125.87598515 70.28975439 126.3125 65.75 C125.94362172 61.32346059 125.0329762 58.23137162 122 55 C113.17742373 48.83002093 101.06494252 50.56517216 90.875 50.75 C88.94533102 50.77009397 87.01564185 50.78833961 85.0859375 50.8046875 C80.38971364 50.84503307 75.69632738 50.92336002 71 51 Z M451 103 C450.01692695 105.94921916 449.86794732 107.88358008 449.85473633 110.95874023 C449.84835648 111.96666122 449.84197662 112.97458221 449.83540344 114.01304626 C449.83429062 115.10057693 449.8331778 116.1881076 449.83203125 117.30859375 C449.82870285 118.4268605 449.82537445 119.54512726 449.82194519 120.69728088 C449.81687993 123.06356393 449.81453674 125.42985412 449.81469727 127.79614258 C449.81251083 131.41955303 449.79435076 135.04265906 449.77539062 138.66601562 C449.77245665 140.96354062 449.77047188 143.26106707 449.76953125 145.55859375 C449.76234573 146.64410019 449.75516022 147.72960663 449.74775696 148.8480072 C449.75083359 149.85908035 449.75391022 150.8701535 449.75708008 151.91186523 C449.75565506 152.7999437 449.75423004 153.68802216 449.75276184 154.60301208 C450.02529803 157.24526587 450.46577347 158.82848554 452 161 C455.92792289 161.88695033 458.59923827 162.43100361 462.4375 161.25 C464.30609329 159.98713894 464.30609329 159.98713894 465 157 C465.09723675 155.34923885 465.13815972 153.694867 465.14526367 152.04125977 C465.15483345 150.52937828 465.15483345 150.52937828 465.16459656 148.98695374 C465.16626579 147.35565773 465.16626579 147.35565773 465.16796875 145.69140625 C465.17129715 144.5731395 465.17462555 143.45487274 465.17805481 142.30271912 C465.18312007 139.93643607 465.18546326 137.57014588 465.18530273 135.20385742 C465.18748917 131.58044697 465.20564924 127.95734094 465.22460938 124.33398438 C465.22754335 122.03645938 465.22952812 119.73893293 465.23046875 117.44140625 C465.24124702 115.81314659 465.24124702 115.81314659 465.25224304 114.1519928 C465.24916641 113.14091965 465.24608978 112.1298465 465.24291992 111.08813477 C465.24505745 109.75601707 465.24505745 109.75601707 465.24723816 108.39698792 C464.97470197 105.75473413 464.53422653 104.17151446 463 102 C456.6841474 100.4986986 456.6841474 100.4986986 451 103 Z M516 103 C515.01692695 105.94921916 514.86794732 107.88358008 514.85473633 110.95874023 C514.84835648 111.96666122 514.84197662 112.97458221 514.83540344 114.01304626 C514.83429062 115.10057693 514.8331778 116.1881076 514.83203125 117.30859375 C514.82870285 118.4268605 514.82537445 119.54512726 514.82194519 120.69728088 C514.81687993 123.06356393 514.81453674 125.42985412 514.81469727 127.79614258 C514.81251083 131.41955303 514.79435076 135.04265906 514.77539062 138.66601562 C514.77245665 140.96354062 514.77047188 143.26106707 514.76953125 145.55859375 C514.76234573 146.64410019 514.75516022 147.72960663 514.74775696 148.8480072 C514.75083359 149.85908035 514.75391022 150.8701535 514.75708008 151.91186523 C514.75565506 152.7999437 514.75423004 153.68802216 514.75276184 154.60301208 C515.02529803 157.24526587 515.46577347 158.82848554 517 161 C520.92792289 161.88695033 523.59923827 162.43100361 527.4375 161.25 C529.30609329 159.98713894 529.30609329 159.98713894 530 157 C530.09723675 155.34923885 530.13815972 153.694867 530.14526367 152.04125977 C530.15483345 150.52937828 530.15483345 150.52937828 530.16459656 148.98695374 C530.16626579 147.35565773 530.16626579 147.35565773 530.16796875 145.69140625 C530.17129715 144.5731395 530.17462555 143.45487274 530.17805481 142.30271912 C530.18312007 139.93643607 530.18546326 137.57014588 530.18530273 135.20385742 C530.18748917 131.58044697 530.20564924 127.95734094 530.22460938 124.33398438 C530.22754335 122.03645938 530.22952812 119.73893293 530.23046875 117.44140625 C530.24124702 115.81314659 530.24124702 115.81314659 530.25224304 114.1519928 C530.24916641 113.14091965 530.24608978 112.1298465 530.24291992 111.08813477 C530.24505745 109.75601707 530.24505745 109.75601707 530.24723816 108.39698792 C529.97470197 105.75473413 529.53422653 104.17151446 528 102 C521.6841474 100.4986986 521.6841474 100.4986986 516 103 Z M309.61328125 104.046875 C308.63385056 104.25934875 307.65441986 104.47182251 306.64530945 104.69073486 C304.58454332 105.14083765 302.52464141 105.59491356 300.46557617 106.05273438 C297.31563185 106.74930743 294.16117333 107.42197823 291.00585938 108.09375 C288.99967992 108.53500558 286.99380883 108.97766603 284.98828125 109.421875 C283.57570793 109.71901398 283.57570793 109.71901398 282.13459778 110.02215576 C275.68047658 111.47189011 275.68047658 111.47189011 271 116 C270.12309986 118.37519232 270.12309986 118.37519232 271 121 C272.92988357 123.52610155 275.17903157 125.64835377 277.5 127.8125 C278.12003906 128.40998047 278.74007813 129.00746094 279.37890625 129.62304688 C280.90825488 131.09357441 282.45271466 132.5483573 284 134 C283.01 136.475 283.01 136.475 282 139 C283.85452275 141.04357603 285.72966198 143.05738472 287.625 145.0625 C288.14707031 145.64322266 288.66914063 146.22394531 289.20703125 146.82226562 C290.74191972 148.42347643 292.12892776 149.80518795 294 151 C296.00380256 150.69034469 298.00423313 150.35780681 300 150 C302.6054468 152.22370993 304.61455325 154.49216212 306.76757812 157.12890625 C308.2676778 158.904567 308.2676778 158.904567 311 161 C314.67755915 161.46359141 314.67755915 161.46359141 318 160 C320.99756687 155.2253709 322.08903356 150.16237065 323.26171875 144.7265625 C323.45723831 143.84398773 323.65275787 142.96141296 323.85420227 142.05209351 C324.26393797 140.1921722 324.66964124 138.33135849 325.0715332 136.46972656 C325.68458905 133.63844369 326.31501551 130.8114257 326.94726562 127.984375 C327.34480321 126.16950121 327.74132132 124.35440375 328.13671875 122.5390625 C328.3241716 121.70235016 328.51162445 120.86563782 328.70475769 120.00357056 C330.71129265 111.35282512 330.71129265 111.35282512 328.9375 103 C323.26506301 100.07229058 315.47755393 102.75455295 309.61328125 104.046875 Z M71 129 C71 139.56 71 150.12 71 161 C77.52890632 161.04606833 84.05724193 161.08584747 90.58618164 161.10986328 C92.80430011 161.11988174 95.0224055 161.13350026 97.24047852 161.15087891 C100.44029989 161.17531051 103.63994567 161.18652496 106.83984375 161.1953125 C107.82145981 161.20563507 108.80307587 161.21595764 109.81443787 161.22659302 C118.5003503 161.22798844 126.15272591 160.7729085 132.625 154.5703125 C135.4161587 151.38268239 135.91410942 148.77301521 136.375 144.625 C135.92079811 140.23438175 134.86273145 137.3635008 132 134 C127.00966507 130.1675154 122.1283947 128.87088789 115.95605469 128.88647461 C114.45495148 128.88658791 114.45495148 128.88658791 112.92352295 128.88670349 C111.31395721 128.89444542 111.31395721 128.89444542 109.671875 128.90234375 C108.56773254 128.9037587 107.46359009 128.90517365 106.32598877 128.90663147 C102.80063158 128.91222742 99.27533798 128.92477921 95.75 128.9375 C93.35937592 128.94251552 90.96875084 128.94707834 88.578125 128.95117188 C82.71870581 128.96134448 76.85942406 128.98092083 71 129 Z M274.0546875 142.6796875 C273.33539063 143.40414062 272.61609375 144.12859375 271.875 144.875 C271.15054687 145.59429687 270.42609375 146.31359375 269.6796875 147.0546875 C267.78215309 148.82394138 267.78215309 148.82394138 268 151 C271.62613199 150.43040847 273.25517741 149.07625466 275.75 146.4375 C276.36359375 145.79683594 276.9771875 145.15617188 277.609375 144.49609375 C278.06828125 144.00238281 278.5271875 143.50867188 279 143 C278.67 142.34 278.34 141.68 278 141 C275.82394138 140.78215309 275.82394138 140.78215309 274.0546875 142.6796875 Z M278.1796875 151.625 C277.07303114 152.74498957 275.9716808 153.87024066 274.875 155 C274.03001953 155.85851562 274.03001953 155.85851562 273.16796875 156.734375 C271.77413732 158.15183069 270.38648364 159.57535626 269 161 C269.33 161.66 269.66 162.32 270 163 C273.90285767 161.41332422 276.33520982 158.86649519 279.25 155.875 C280.14203125 154.96492187 281.0340625 154.05484375 281.953125 153.1171875 C282.62859375 152.41851562 283.3040625 151.71984375 284 151 C283.67 150.34 283.34 149.68 283 149 C280.60185063 148.77289795 280.60185063 148.77289795 278.1796875 151.625 Z M287.0546875 155.6796875 C286.33539063 156.40414062 285.61609375 157.12859375 284.875 157.875 C284.15054687 158.59429687 283.42609375 159.31359375 282.6796875 160.0546875 C280.78215309 161.82394138 280.78215309 161.82394138 281 164 C284.62613199 163.43040847 286.25517741 162.07625466 288.75 159.4375 C289.36359375 158.79683594 289.9771875 158.15617188 290.609375 157.49609375 C291.06828125 157.00238281 291.5271875 156.50867188 292 156 C291.67 155.34 291.34 154.68 291 154 C288.82394138 153.78215309 288.82394138 153.78215309 287.0546875 155.6796875 Z " fill="#FFB637" transform="translate(18,13)"/>
<path d="M0 0 C15.58229237 13.67895196 22.8941714 29.9491927 26.5625 50.125 C26.5625 60.355 26.5625 70.585 26.5625 81.125 C-29.3725 81.62 -29.3725 81.62 -86.4375 82.125 C-82.35448641 89.32922428 -82.35448641 89.32922428 -76.625 93.5 C-75.83480469 93.96148437 -75.04460937 94.42296875 -74.23046875 94.8984375 C-63.54931161 99.58918343 -48.84499568 100.203462 -37.8125 96.2578125 C-33.7352701 94.31308113 -29.9083294 91.97646517 -26.1015625 89.55078125 C-23.4375 88.125 -23.4375 88.125 -19.4375 88.125 C-17.66571045 89.41577148 -17.66571045 89.41577148 -15.86230469 91.24609375 C-15.18190125 91.92679932 -14.5014978 92.60750488 -13.80047607 93.30883789 C-12.71588104 94.42440063 -12.71588104 94.42440063 -11.609375 95.5625 C-10.86036926 96.31716553 -10.11136353 97.07183105 -9.33966064 97.84936523 C-6.94607548 100.26536704 -4.56675767 102.69489529 -2.1875 105.125 C-0.56862811 106.76392986 1.05115261 108.40196256 2.671875 110.0390625 C6.64602665 114.05735177 10.6085471 118.08683919 14.5625 122.125 C10.56933761 132.8217153 -2.14430696 138.53270289 -12.06542969 143.13818359 C-26.30234172 149.06095 -41.06094385 150.3616095 -56.3125 150.375 C-57.0024707 150.37567474 -57.69244141 150.37634949 -58.40332031 150.37704468 C-84.84131245 150.33602285 -110.37877996 144.29900809 -130.4375 126.125 C-131.26765625 125.38765625 -132.0978125 124.6503125 -132.953125 123.890625 C-148.98299311 108.84418438 -157.08995438 88.61284625 -157.79101562 66.75976562 C-158.01647452 44.35734971 -150.69463642 23.17469206 -135.18212891 6.78051758 C-100.64940631 -28.36260512 -38.23069153 -30.59415892 0 0 Z M-82.4375 34.125 C-86.08352311 38.05886704 -88.4375 41.66448463 -88.4375 47.125 C-71.6075 47.125 -54.7775 47.125 -37.4375 47.125 C-39.74052051 39.06442822 -43.32815193 33.73486548 -50.234375 28.85546875 C-61.50484735 23.40807378 -73.55002347 25.98318476 -82.4375 34.125 Z " fill="#FFB434" transform="translate(1031.4375,76.875)"/>
<path d="M0 0 C0 20.13 0 40.26 0 61 C-7.26 61 -14.52 61 -22 61 C-30.87802948 62.82113425 -38.5698204 65.33976717 -44 73 C-49.08528549 82.70993513 -48.60446487 92.80193998 -48.609375 103.44921875 C-48.6243791 105.31681232 -48.64111088 107.18439272 -48.65948486 109.05195618 C-48.70292044 113.93281715 -48.72310436 118.81349919 -48.73822021 123.69451904 C-48.76134259 129.56939935 -48.81374446 135.4440847 -48.86116028 141.31880951 C-48.92970451 150.21259016 -48.96137161 159.10581276 -49 168 C-71.77 168 -94.54 168 -118 168 C-118 113.55 -118 59.1 -118 3 C-96.55 3 -75.1 3 -53 3 C-52.505 10.92 -52.505 10.92 -52 19 C-50.80375 17.824375 -49.6075 16.64875 -48.375 15.4375 C-34.71217199 3.34042779 -17.71084333 0 0 0 Z " fill="#FFB739" transform="translate(1182,56)"/>
<path d="" fill="#FFAE2D" transform="translate(0,0)"/>
<path d="" fill="#FFAF2E" transform="translate(0,0)"/>
<path d="" fill="#FFAF2F" transform="translate(0,0)"/>
<path d="" fill="#FFAF2F" transform="translate(0,0)"/>
<path d="" fill="#FFAF30" transform="translate(0,0)"/>
<path d="" fill="#FFB031" transform="translate(0,0)"/>
<path d="" fill="#FFB031" transform="translate(0,0)"/>
<path d="" fill="#FFB032" transform="translate(0,0)"/>
</svg>
