<?xml version="1.0" encoding="UTF-8"?>
<svg version="1.1" xmlns="http://www.w3.org/2000/svg" width="1182" height="227">
<path d="M0 0 C31.55625 -0.0928125 31.55625 -0.0928125 63.75 -0.1875 C73.65725098 -0.22846802 73.65725098 -0.22846802 83.76464844 -0.27026367 C91.92626953 -0.28381348 91.92626953 -0.28381348 95.76568604 -0.28633118 C98.40665506 -0.2908918 101.04716938 -0.30017832 103.68804932 -0.31672668 C132.02522793 -0.4862288 161.93619273 0.01203368 183.77734375 20.7109375 C193.39483987 30.61577533 197.1936482 41.16250807 198.3125 54.8125 C197.80456419 70.27279632 191.98123334 82.40183294 181 93 C177.85006665 95.65002925 174.69064794 98.15467603 171 100 C171.82242188 100.4125 172.64484375 100.825 173.4921875 101.25 C187.55944189 108.52728634 199.47039071 117.47677393 205 133 C205.02578125 131.88625 205.0515625 130.7725 205.078125 129.625 C205.53709993 115.80238302 207.38578936 102.3685739 214 90 C214.46921875 89.08089844 214.9384375 88.16179687 215.421875 87.21484375 C226.96620408 65.91280794 247.12395729 52.93136125 269.85546875 46.0078125 C280.19647478 43.33924912 290.3437275 42.61046391 301 42.625 C302.01513672 42.62581573 302.01513672 42.62581573 303.05078125 42.62664795 C329.71390103 42.72472028 354.02536532 49.93666081 373.69921875 68.64453125 C384.43174819 79.63216325 391.77618814 92.21665849 396 107 C396.268125 106.06800781 396.53625 105.13601562 396.8125 104.17578125 C400.98395326 90.34460107 407.75820241 79.2762238 418 69 C418.73605469 68.24074219 419.47210938 67.48148437 420.23046875 66.69921875 C431.05159289 56.20435966 444.56264964 49.86308955 459 46 C460.13566406 45.68160156 461.27132813 45.36320312 462.44140625 45.03515625 C491.29901974 38.27992202 523.72920112 42.49488978 549.08984375 57.95703125 C563.9133414 68.36332557 576.32637181 82.64537258 582 100 C582.17015625 99.02160156 582.3403125 98.04320313 582.515625 97.03515625 C585.3462323 81.43793237 590.88892216 68.72757388 604 59 C623.32676015 46.16321363 644.92592012 42.38411342 667.75 42.625 C668.53203796 42.62932037 669.31407593 42.63364075 670.11981201 42.63809204 C690.57951577 42.77014222 710.96553026 44.93265638 730 53 C730.33 50.69 730.66 48.38 731 46 C738.26 46 745.52 46 753 46 C753 33.79 753 21.58 753 9 C775.77 9 798.54 9 822 9 C822 21.21 822 33.42 822 46 C833.22 46 844.44 46 856 46 C856 62.5 856 79 856 96 C844.78 96 833.56 96 822 96 C822.05108096 103.70556248 822.11406845 111.40911663 822.20751953 119.11401367 C822.2357043 121.73373917 822.25693116 124.35354932 822.27099609 126.97338867 C822.29245898 130.7444179 822.33913041 134.51443205 822.390625 138.28515625 C822.39185364 139.45208511 822.39308228 140.61901398 822.39434814 141.82130432 C822.51239206 148.41002985 823.02370688 152.65969974 827 158 C830.06176979 160.29159264 832.92605609 160.29774924 836.6875 160.3125 C838.14736328 160.33763672 838.14736328 160.33763672 839.63671875 160.36328125 C844.03712057 160.00849415 844.03712057 160.00849415 852 157 C859.92 180.265 859.92 180.265 868 204 C858.15649688 213.84350312 838.45674416 214.10143037 825.1875 214.3125 C803.10688241 213.75746808 782.08133313 208.80086784 766.3125 192.375 C754.46461133 178.16303146 752.83060721 159.76123523 752.90234375 142.09375 C752.90421228 140.75996962 752.90563413 139.42618854 752.90663147 138.09240723 C752.9104224 134.60723933 752.92022285 131.1221141 752.93133545 127.63696289 C752.94162377 124.07048113 752.94614489 120.50399237 752.95117188 116.9375 C752.9618487 109.9583142 752.97941717 102.97916355 753 96 C745.74 96 738.48 96 731 96 C730.67 87.75 730.34 79.5 730 71 C725.71 81.23 721.42 91.46 717 102 C712.54551171 100.51517057 708.41966777 98.90911317 704.125 97.0625 C692.36399825 92.28254994 681.05059117 90.76072853 668.4375 90.6875 C667.50929443 90.68186035 666.58108887 90.6762207 665.62475586 90.67041016 C660.36081655 90.72676005 655.98020894 91.28865407 651 93 C649.515 93.495 649.515 93.495 648 94 C648 95.65 648 97.3 648 99 C656.46223942 103.59100805 665.22510916 104.39153137 674.625 105.5 C695.63355071 108.01127693 718.58985524 111.05359126 732.9375 128.375 C741.20019236 139.80802995 742.02646729 152.37493695 741 166 C738.5904105 179.12210185 730.70052957 190.26036342 720 198 C689.30446519 218.07622482 649.0351599 216.79939101 614.38623047 209.74316406 C602.72397477 207.19557275 591.59170759 203.5095878 581 198 C581.58516139 194.7005714 582.38266265 191.75851825 583.67407227 188.66870117 C584.01434952 187.848228 584.35462677 187.02775482 584.70521545 186.18241882 C585.07190842 185.3114003 585.43860138 184.44038177 585.81640625 183.54296875 C586.19232407 182.64000565 586.56824188 181.73704254 586.95555115 180.80671692 C588.15357006 177.93182925 589.35794045 175.05965246 590.5625 172.1875 C591.37737379 170.23520157 592.19183176 168.28272953 593.00585938 166.33007812 C594.99909212 161.55135966 596.9980242 156.77506191 599 152 C602.37504737 152.77240582 605.40620164 153.99158055 608.58154297 155.37426758 C627.3944354 163.51409483 649.47380583 168.73431371 670 165 C674.3327392 163.4188551 674.3327392 163.4188551 676.875 159.9375 C676.95954431 158.62706319 677 157.31316121 677 156 C667.79430089 153.67151101 658.67110888 152.19068596 649.25 151.0625 C626.82495465 148.23788709 605.95767288 144.9797061 590.5078125 126.9921875 C588.81588868 124.75674411 587.40181234 122.42589082 586 120 C586.03480469 120.95777344 586.06960938 121.91554688 586.10546875 122.90234375 C586.70790153 146.85665316 580.41935787 168.15905796 563.88671875 186.140625 C546.63952905 203.13785543 522.14891229 213.1205252 498 214 C496.87207031 214.0515625 495.74414062 214.103125 494.58203125 214.15625 C467.83122429 214.80020122 441.19245636 208.29517858 421 190 C420.16984375 189.26265625 419.3396875 188.5253125 418.484375 187.765625 C407.27222847 177.24134022 399.45828365 164.05794337 396 149 C395.6596875 150.00417969 395.319375 151.00835937 394.96875 152.04296875 C390.09122306 165.98806685 383.53637943 177.42716251 373 188 C372.33742188 188.68578125 371.67484375 189.3715625 370.9921875 190.078125 C352.74680653 207.69913932 326.10044334 213.72974247 301.5 214.375 C273.2902778 213.63507286 248.09480505 205.62327919 227.6015625 185.6640625 C218.91225448 176.50025302 212.67946053 166.07928162 209 154 C208.67 154 208.34 154 208 154 C207.90203125 154.89460937 207.8040625 155.78921875 207.703125 156.7109375 C206.17397291 169.07597769 203.23871461 177.59941538 195 187 C194.24976563 187.90878906 194.24976563 187.90878906 193.484375 188.8359375 C177.78307625 206.36112448 150.03402973 209.69866443 128 211 C123.59043512 211.12296686 119.18521832 211.12729819 114.77416992 211.11352539 C113.5038432 211.11364593 112.23351648 211.11376646 110.92469501 211.11389065 C107.53173418 211.11411363 104.13880962 211.1083772 100.74585724 211.10128021 C97.54561978 211.09552572 94.3453836 211.09531389 91.1451416 211.09460449 C81.82592305 211.08938633 72.50671105 211.07542508 63.1875 211.0625 C42.335625 211.041875 21.48375 211.02125 0 211 C0 141.37 0 71.74 0 0 Z M70 50 C70 59.9 70 69.8 70 80 C75.83541167 80.06910356 81.66938706 80.12876741 87.50488281 80.16479492 C89.4873538 80.17982344 91.46979186 80.20025198 93.45214844 80.22631836 C96.31193193 80.26296383 99.17127344 80.27978604 102.03125 80.29296875 C102.90865845 80.30845261 103.78606689 80.32393646 104.69006348 80.33988953 C110.47546737 80.34144966 114.73395013 79.44979146 120 77 C124.35264033 72.42414734 125.30339612 69.38963077 125.21484375 63.25 C124.8075631 58.98466087 122.76621593 56.7887517 119.875 53.8125 C113.53966999 49.8184876 106.11437279 49.70858782 98.80859375 49.8046875 C97.97787857 49.8075174 97.14716339 49.81034729 96.29127502 49.81326294 C93.67319495 49.82433709 91.05547429 49.8494164 88.4375 49.875 C86.64779145 49.88504635 84.85807746 49.89416928 83.06835938 49.90234375 C78.71199427 49.92252145 74.35639298 49.96169269 70 50 Z M583 104 C584 107 584 107 584 107 Z M70 128 C70 138.56 70 149.12 70 160 C77.09904561 160.09209573 84.19599783 160.17165853 91.29516602 160.21972656 C93.70734705 160.23977552 96.11947989 160.26702192 98.53149414 160.30175781 C102.00939873 160.35057051 105.48665772 160.37303683 108.96484375 160.390625 C110.56851051 160.42159271 110.56851051 160.42159271 112.20457458 160.45318604 C118.88937427 160.45516534 124.25707538 159.58612703 130 156 C134.27701226 151.50913713 135.37666484 148.44073008 135.26953125 142.3828125 C134.83638587 138.55355621 133.6319857 135.82260305 131 133 C125.45515761 129.19153831 119.70078874 127.86886335 113.02612305 127.88647461 C112.06550461 127.88655014 111.10488617 127.88662567 110.11515808 127.88670349 C108.57895561 127.89444542 108.57895561 127.89444542 107.01171875 127.90234375 C105.95338333 127.9037587 104.89504791 127.90517365 103.80464172 127.90663147 C100.43223211 127.91221841 97.05988946 127.92476856 93.6875 127.9375 C91.39778742 127.94251669 89.10807379 127.9470793 86.81835938 127.95117188 C81.21219318 127.96133165 75.60617134 127.98090975 70 128 Z M207 147 C208 151 208 151 208 151 Z " fill="#FEB32C" transform="translate(11,6)"/>
<path d="M0 0 C1.92428833 0.00845947 1.92428833 0.00845947 3.88745117 0.01708984 C30.89228818 0.36258209 52.78619901 9.28619901 71.9609375 28.4609375 C87.59973248 45.05843256 92.10369597 66.43898692 91.98046875 88.64453125 C91.78648213 92.8806577 91.28079215 97.09787064 90.8125 101.3125 C34.8775 101.8075 34.8775 101.8075 -22.1875 102.3125 C-15.66100752 112.10223873 -12.4294343 115.45898446 -1.625 118.1875 C13.71601122 121.06188647 26.85786726 118.07075918 39.62109375 109.38671875 C41.8125 108.3125 41.8125 108.3125 43.73075867 108.55290222 C46.19245285 109.45113939 47.44842836 110.55553694 49.31176758 112.3918457 C49.97537796 113.03954422 50.63898834 113.68724274 51.32270813 114.35456848 C52.02703476 115.0586937 52.73136139 115.76281891 53.45703125 116.48828125 C54.18621262 117.20984909 54.91539398 117.93141693 55.66667175 118.67485046 C57.2044172 120.20179495 58.73820716 121.73273171 60.26831055 123.26733398 C62.61961354 125.6196113 64.99142933 127.9497563 67.36523438 130.27929688 C68.85546546 131.76432279 70.34444183 133.25060911 71.83203125 134.73828125 C72.54647903 135.43633377 73.26092682 136.13438629 73.99702454 136.85359192 C74.64487411 137.51074692 75.29272369 138.16790192 75.96020508 138.8449707 C76.53660233 139.41931351 77.11299957 139.99365631 77.7068634 140.58540344 C78.8125 142.3125 78.8125 142.3125 78.60722351 144.3971405 C75.18767049 152.6385896 63.48785877 158.70361365 55.8125 162.3125 C46.48828725 166.05597003 36.81396703 169.13315396 26.8125 170.3125 C25.89855469 170.42207031 24.98460937 170.53164062 24.04296875 170.64453125 C-7.5850582 173.82003596 -38.92607938 168.4960337 -64.1875 148.3125 C-64.80625 147.85746094 -65.425 147.40242187 -66.0625 146.93359375 C-80.28715219 135.90290282 -89.72888572 116.85617137 -92.1875 99.3125 C-95.07288265 75.98491486 -91.02479726 53.11015479 -76.375 34.1875 C-74.99825549 32.5462961 -73.60239531 30.92092997 -72.1875 29.3125 C-71.52105469 28.55066406 -70.85460937 27.78882812 -70.16796875 27.00390625 C-52.23054604 7.80187859 -25.62445379 -0.11767446 0 0 Z M-19.74609375 56.44140625 C-22.55430546 60.08675424 -24.1875 63.63770266 -24.1875 68.3125 C-7.3575 68.3125 9.4725 68.3125 26.8125 68.3125 C25.55699709 60.77948256 22.4454627 56.47595476 16.8125 51.4375 C5.01617055 43.08176664 -10.35038731 46.30450719 -19.74609375 56.44140625 Z " fill="#FFB129" transform="translate(959.1875,48.6875)"/>
<path d="M0 0 C0 20.13 0 40.26 0 61 C-6.27 60.67 -12.54 60.34 -19 60 C-27.8922326 60.83364681 -36.03521603 63.32120589 -42.6953125 69.59765625 C-50.46119704 79.43289325 -49.47098261 92.3290214 -49.51171875 104.1328125 C-49.5285878 105.97941261 -49.546741 107.82600139 -49.56611633 109.6725769 C-49.61338088 114.50244608 -49.64334197 119.33226931 -49.66955566 124.16229248 C-49.704754 129.973729 -49.76169904 135.78498919 -49.81494904 141.59628296 C-49.8931865 150.39749878 -49.94400091 159.19848817 -50 168 C-72.77 168 -95.54 168 -119 168 C-119 113.55 -119 59.1 -119 3 C-97.22 3 -75.44 3 -53 3 C-52.505 9.93 -52.505 9.93 -52 17 C-50.2675 15.618125 -48.535 14.23625 -46.75 12.8125 C-32.57822982 1.99638453 -17.54787739 0 0 0 Z " fill="#FFB42E" transform="translate(1175,49)"/>
<path d="M0 0 C1.40625 1.16015625 1.40625 1.16015625 3.90625 4.22265625 C4.5244911 11.69369026 2.98754883 18.36486637 1.21875 25.59765625 C0.80991577 27.31795044 0.80991577 27.31795044 0.39282227 29.07299805 C-1.38776446 36.50291497 -3.25792337 43.90814452 -5.26831055 51.27929688 C-6.40226111 55.46144802 -7.42435045 59.64695865 -8.33984375 63.8828125 C-8.54988037 64.83502686 -8.75991699 65.78724121 -8.97631836 66.76831055 C-9.37684063 68.60368128 -9.76268675 70.44233998 -10.13110352 72.28442383 C-11.30468431 77.60853608 -12.54812796 80.81514347 -17.09375 84.22265625 C-20.28097318 85.44077865 -22.8489755 85.21553677 -26.09375 84.22265625 C-30.67856745 80.98236005 -34.42785586 76.99680344 -38.2578125 72.91796875 C-38.86367188 72.35851562 -39.46953125 71.7990625 -40.09375 71.22265625 C-43.16810378 71.40898072 -44.46746096 72.47179689 -47.09375 74.22265625 C-50.41513725 74.86362572 -51.9255208 75.09886129 -55.09375 74.22265625 C-61.38795039 69.83902208 -68.61811775 63.17392074 -72.09375 56.22265625 C-72.53518161 52.24977172 -72.41405013 50.68308769 -70.09375 47.34765625 C-69.43375 46.64640625 -68.77375 45.94515625 -68.09375 45.22265625 C-69.61275022 41.59851985 -71.77445454 39.36503225 -74.59375 36.66015625 C-81.37803162 30.12918384 -81.37803162 30.12918384 -81.53125 24.84765625 C-81.59119141 23.72230469 -81.59119141 23.72230469 -81.65234375 22.57421875 C-80.76826151 18.85241798 -79.11219445 17.54716184 -76.09375 15.22265625 C-72.77620706 13.89398011 -69.38318505 13.09023613 -65.90625 12.28515625 C-64.40167236 11.91511475 -64.40167236 11.91511475 -62.86669922 11.53759766 C-59.61370736 10.74478432 -56.35499383 9.98076288 -53.09375 9.22265625 C-51.9898291 8.96307129 -50.8859082 8.70348633 -49.74853516 8.43603516 C-44.22786752 7.13965477 -38.70290462 5.86470017 -33.171875 4.61328125 C-29.42265654 3.76320861 -25.68357905 2.88595854 -21.953125 1.95703125 C-21.18532715 1.7677002 -20.4175293 1.57836914 -19.62646484 1.38330078 C-17.64261185 0.8908168 -15.66103097 0.3892038 -13.6796875 -0.11328125 C-9.10317168 -0.96078418 -4.47206827 -1.66033878 0 0 Z " fill="#F7F6F5" transform="translate(355.09375,89.77734375)"/>
<path d="M0 0 C3.87554547 0.63274212 5.33992005 1.6790014 8.0625 4.5 C8.56907455 7.18925221 8.74846039 9.25523075 8.70947266 11.94311523 C8.71823425 12.68669281 8.72699585 13.43027039 8.73602295 14.19638062 C8.758005 16.65104775 8.7434688 19.10390874 8.7265625 21.55859375 C8.72993138 23.2672612 8.7347846 24.97592632 8.74105835 26.68458557 C8.7484283 30.26497217 8.73772211 33.84473481 8.71435547 37.42504883 C8.68588855 42.00984937 8.70225669 46.59318517 8.73221779 51.17793179 C8.75030627 54.70651741 8.74452539 58.23475717 8.73157883 61.76335335 C8.72824795 63.45341224 8.73232075 65.14350273 8.74397659 66.8335247 C8.75670932 69.19902249 8.7372778 71.56216729 8.70947266 73.92749023 C8.71959381 74.62323654 8.72971497 75.31898285 8.74014282 76.03581238 C8.65780964 79.82560896 8.10651104 81.44352098 5.74862671 84.46937561 C3.0625 86.5 3.0625 86.5 -0.5625 86.5625 C-4.36026895 85.36690607 -5.07139938 84.90727204 -6.9375 81.5 C-7.23226157 78.93215072 -7.35807277 76.60744238 -7.34155273 74.04101562 C-7.34841599 73.29583176 -7.35527924 72.55064789 -7.36235046 71.78288269 C-7.38062683 69.3238104 -7.37678037 66.86537552 -7.37109375 64.40625 C-7.3756548 62.69518832 -7.38096015 60.98412847 -7.38697815 59.27307129 C-7.3959106 55.68864495 -7.39348424 52.10444139 -7.38354492 48.52001953 C-7.37204833 43.92636903 -7.39227617 39.33348644 -7.42146206 34.73993683 C-7.43980556 31.20716467 -7.43953545 27.67457723 -7.43382454 24.14176941 C-7.43367113 22.44808372 -7.43973149 20.75438566 -7.45211601 19.06074524 C-7.46699184 16.69300084 -7.45637608 14.32668404 -7.43920898 11.95898438 C-7.44887695 11.25964279 -7.45854492 10.56030121 -7.46850586 9.83976746 C-7.41771225 6.4948538 -7.13590616 4.76145473 -5.08973694 2.06506348 C-2.9375 0.5 -2.9375 0.5 0 0 Z " fill="#F7F6F5" transform="translate(530.9375,94.5)"/>
<path d="M0 0 C3.87554547 0.63274212 5.33992005 1.6790014 8.0625 4.5 C8.56907455 7.18925221 8.74846039 9.25523075 8.70947266 11.94311523 C8.71823425 12.68669281 8.72699585 13.43027039 8.73602295 14.19638062 C8.758005 16.65104775 8.7434688 19.10390874 8.7265625 21.55859375 C8.72993138 23.2672612 8.7347846 24.97592632 8.74105835 26.68458557 C8.7484283 30.26497217 8.73772211 33.84473481 8.71435547 37.42504883 C8.68588855 42.00984937 8.70225669 46.59318517 8.73221779 51.17793179 C8.75030627 54.70651741 8.74452539 58.23475717 8.73157883 61.76335335 C8.72824795 63.45341224 8.73232075 65.14350273 8.74397659 66.8335247 C8.75670932 69.19902249 8.7372778 71.56216729 8.70947266 73.92749023 C8.71959381 74.62323654 8.72971497 75.31898285 8.74014282 76.03581238 C8.65780964 79.82560896 8.10651104 81.44352098 5.74862671 84.46937561 C3.0625 86.5 3.0625 86.5 -0.5625 86.5625 C-4.36026895 85.36690607 -5.07139938 84.90727204 -6.9375 81.5 C-7.23226157 78.93215072 -7.35807277 76.60744238 -7.34155273 74.04101562 C-7.34841599 73.29583176 -7.35527924 72.55064789 -7.36235046 71.78288269 C-7.38062683 69.3238104 -7.37678037 66.86537552 -7.37109375 64.40625 C-7.3756548 62.69518832 -7.38096015 60.98412847 -7.38697815 59.27307129 C-7.3959106 55.68864495 -7.39348424 52.10444139 -7.38354492 48.52001953 C-7.37204833 43.92636903 -7.39227617 39.33348644 -7.42146206 34.73993683 C-7.43980556 31.20716467 -7.43953545 27.67457723 -7.43382454 24.14176941 C-7.43367113 22.44808372 -7.43973149 20.75438566 -7.45211601 19.06074524 C-7.46699184 16.69300084 -7.45637608 14.32668404 -7.43920898 11.95898438 C-7.44887695 11.25964279 -7.45854492 10.56030121 -7.46850586 9.83976746 C-7.41771225 6.4948538 -7.13590616 4.76145473 -5.08973694 2.06506348 C-2.9375 0.5 -2.9375 0.5 0 0 Z " fill="#F7F6F5" transform="translate(469.9375,94.5)"/>
<path d="M0 0 C1.04414063 0.42345703 1.04414063 0.42345703 2.109375 0.85546875 C1.24696374 5.43378524 -1.44629503 7.96223046 -4.640625 11.16796875 C-5.1665625 11.73064453 -5.6925 12.29332031 -6.234375 12.87304688 C-7.8125 14.46875 -7.8125 14.46875 -10.890625 16.85546875 C-13.78125 16.7109375 -13.78125 16.7109375 -15.890625 15.85546875 C-15.02821374 11.27715226 -12.33495497 8.74870704 -9.140625 5.54296875 C-8.35171875 4.69895508 -8.35171875 4.69895508 -7.546875 3.83789062 C-3.57450577 -0.17872529 -3.57450577 -0.17872529 0 0 Z " fill="#F7EEDE" transform="translate(278.890625,147.14453125)"/>
<path d="M0 0 C2.18408203 0.35083008 2.18408203 0.35083008 4 1 C2.32357676 5.25314786 -0.7175909 8.12101814 -3.875 11.3125 C-4.40480469 11.87517578 -4.93460937 12.43785156 -5.48046875 13.01757812 C-7.0546875 14.61328125 -7.0546875 14.61328125 -10 17 C-12.18408203 16.64916992 -12.18408203 16.64916992 -14 16 C-12.32357676 11.74685214 -9.2824091 8.87898186 -6.125 5.6875 C-5.59519531 5.12482422 -5.06539063 4.56214844 -4.51953125 3.98242188 C-2.9453125 2.38671875 -2.9453125 2.38671875 0 0 Z " fill="#F7F6F4" transform="translate(297,167)"/>
<path d="M0 0 C2.18408203 0.35083008 2.18408203 0.35083008 4 1 C2.32357676 5.25314786 -0.7175909 8.12101814 -3.875 11.3125 C-4.40480469 11.87517578 -4.93460937 12.43785156 -5.48046875 13.01757812 C-7.0546875 14.61328125 -7.0546875 14.61328125 -10 17 C-12.18408203 16.64916992 -12.18408203 16.64916992 -14 16 C-12.32357676 11.74685214 -9.2824091 8.87898186 -6.125 5.6875 C-5.59519531 5.12482422 -5.06539063 4.56214844 -4.51953125 3.98242188 C-2.9453125 2.38671875 -2.9453125 2.38671875 0 0 Z " fill="#F7F6F4" transform="translate(282,162)"/>
</svg>
