<?xml version="1.0" encoding="UTF-8"?>
<svg version="1.1" xmlns="http://www.w3.org/2000/svg" width="246" height="227">
<path d="M0 0 C0.5873291 0.28214355 1.1746582 0.56428711 1.77978516 0.85498047 C10.78931829 5.23793388 18.58595518 10.17654765 26 17 C26.51804199 17.47034668 27.03608398 17.94069336 27.56982422 18.42529297 C49.57737073 38.60377654 60.71457374 65.05045732 62.1875 94.78515625 C62.68541008 124.37968686 53.26761211 152.03112946 32.78198242 173.73779297 C14.1106899 192.82740276 -10.55310919 204.45727008 -37 208 C-37.80695313 208.11085937 -38.61390625 208.22171875 -39.4453125 208.3359375 C-61.40518221 210.8206934 -84.30169177 208.92013586 -105 201 C-105.65661621 200.75266113 -106.31323242 200.50532227 -106.98974609 200.25048828 C-134.24888641 189.76417808 -155.22248959 169.74369614 -167.76171875 143.40625 C-179.32320366 116.61389203 -179.84953532 84.32019693 -169.25 57.125 C-163.57522208 44.04895313 -156.56406753 33.49149226 -147 23 C-146.41734375 22.33484375 -145.8346875 21.6696875 -145.234375 20.984375 C-110.58566649 -16.46422915 -44.19597669 -21.42658315 0 0 Z " fill="#FFB93C" transform="translate(180,14)"/>
<path d="M0 0 C1.27230469 -0.03867188 1.27230469 -0.03867188 2.5703125 -0.078125 C4.875 0.25 4.875 0.25 6.6796875 1.328125 C10.09227043 6.81502304 7.02497527 15.61204783 5.86328125 21.5 C5.65317917 22.58974121 5.44307709 23.67948242 5.22660828 24.80224609 C4.77986371 27.1125728 4.32998744 29.42229584 3.87719727 31.73144531 C3.20090056 35.18163582 2.53410949 38.63354796 1.86914062 42.0859375 C0.56772208 48.813404 -0.77176199 55.53278757 -2.125 62.25 C-2.34722229 63.3647168 -2.56944458 64.47943359 -2.79840088 65.62792969 C-3.44262802 68.83807258 -4.10327528 72.04436554 -4.76953125 75.25 C-4.96230148 76.21760254 -5.15507172 77.18520508 -5.35368347 78.18212891 C-5.54223404 79.07077637 -5.73078461 79.95942383 -5.92504883 80.875 C-6.16497307 82.03902344 -6.16497307 82.03902344 -6.40974426 83.2265625 C-7.2530401 85.61222167 -8.12305546 86.71397959 -10.125 88.25 C-14.22044064 88.80654393 -16.29930402 88.82825867 -19.72387695 86.42993164 C-20.51238037 85.59840576 -21.30088379 84.76687988 -22.11328125 83.91015625 C-22.98404297 83.01232422 -23.85480469 82.11449219 -24.75195312 81.18945312 C-25.63818359 80.24005859 -26.52441406 79.29066406 -27.4375 78.3125 C-29.22357788 76.44760587 -31.01125616 74.58424275 -32.80078125 72.72265625 C-33.58364502 71.89000244 -34.36650879 71.05734863 -35.1730957 70.19946289 C-36.9774477 68.19226197 -36.9774477 68.19226197 -39.125 67.25 C-39.785 68.57 -40.445 69.89 -41.125 71.25 C-45.30417653 70.73817777 -47.23210028 68.48850155 -50.109375 65.55859375 C-50.56983215 65.09389175 -51.03028931 64.62918976 -51.50469971 64.15040588 C-52.96867811 62.66968181 -54.42186041 61.17885481 -55.875 59.6875 C-56.86779449 58.67965336 -57.8612767 57.67248367 -58.85546875 56.66601562 C-61.28666473 54.20180539 -63.70828868 51.72842671 -66.125 49.25 C-65.609375 48.6725 -65.09375 48.095 -64.5625 47.5 C-62.92876273 45.41243737 -62.92876273 45.41243737 -63.19677734 43.24145508 C-64.38768371 40.6864253 -65.88854174 39.27970979 -67.9765625 37.38671875 C-68.74484375 36.66419922 -69.513125 35.94167969 -70.3046875 35.19726562 C-71.93330055 33.69222944 -73.57136793 32.19735912 -75.21875 30.71289062 C-81.05961448 25.17193585 -81.05961448 25.17193585 -81.3984375 20.39453125 C-79.99481641 16.92853438 -79.23375129 16.15984861 -76.125 14.25 C-73.59594727 13.46972656 -73.59594727 13.46972656 -70.69140625 12.890625 C-69.58474609 12.66528076 -68.47808594 12.43993652 -67.33789062 12.20776367 C-65.53094727 11.85742065 -65.53094727 11.85742065 -63.6875 11.5 C-61.80901367 11.12355347 -61.80901367 11.12355347 -59.89257812 10.73950195 C-55.64037415 9.89053659 -51.38330862 9.06772647 -47.125 8.25 C-46.32680847 8.09666199 -45.52861694 7.94332397 -44.70623779 7.78533936 C-35.00609331 5.9246954 -25.30162932 4.08731914 -15.59190369 2.27732849 C-12.82805445 1.76139077 -10.0674596 1.23821516 -7.31298828 0.67407227 C-4.84791684 0.1962962 -2.50984081 0.04605212 0 0 Z " fill="#FFFEFD" transform="translate(162.125,69.75)"/>
<path d="M0 0 C1.87963867 0.82666016 1.87963867 0.82666016 3.87963867 2.82666016 C3.39935867 8.02857553 -0.8819057 11.14085013 -4.37036133 14.63916016 C-5.03938477 15.34492188 -5.7084082 16.05068359 -6.39770508 16.77783203 C-7.05383789 17.43976563 -7.7099707 18.10169922 -8.38598633 18.78369141 C-8.98185547 19.39188721 -9.57772461 20.00008301 -10.19165039 20.62670898 C-12.12036133 21.82666016 -12.12036133 21.82666016 -14.85375977 21.5168457 C-15.97572754 21.17520386 -15.97572754 21.17520386 -17.12036133 20.82666016 C-17.82421875 18.578125 -17.82421875 18.578125 -18.12036133 15.82666016 C-16.82861328 13.77441406 -16.82861328 13.77441406 -14.85864258 11.80322266 C-14.1515918 11.09294922 -13.44454102 10.38267578 -12.71606445 9.65087891 C-11.96260742 8.92513672 -11.20915039 8.19939453 -10.43286133 7.45166016 C-9.69874023 6.70271484 -8.96461914 5.95376953 -8.20825195 5.18212891 C-2.7195129 -0.22232057 -2.7195129 -0.22232057 0 0 Z " fill="#FFFBF5" transform="translate(97.120361328125,135.17333984375)"/>
<path d="M0 0 C1.9387207 0.77416992 1.9387207 0.77416992 3.9387207 2.77416992 C3.43136052 7.36824389 0.25357898 9.97408075 -2.8737793 13.08666992 C-3.4080957 13.6493457 -3.94241211 14.21202148 -4.49291992 14.79174805 C-6.08081055 16.38745117 -6.08081055 16.38745117 -9.0612793 18.77416992 C-12.02661251 18.44929331 -12.9114816 17.92396762 -15.0612793 15.77416992 C-14.55391911 11.18009595 -11.37613757 8.57425909 -8.2487793 5.46166992 C-7.44730469 4.61765625 -7.44730469 4.61765625 -6.62963867 3.7565918 C-2.60719757 -0.28563991 -2.60719757 -0.28563991 0 0 Z " fill="#FFFAF4" transform="translate(111.061279296875,141.225830078125)"/>
<path d="M0 0 C2.47450903 1.17324503 2.95181228 2.40780266 3.9206543 4.91064453 C1.69113681 7.28496482 -0.56593771 9.63114598 -2.8293457 11.97314453 C-3.78067383 12.98731445 -3.78067383 12.98731445 -4.7512207 14.02197266 C-5.3699707 14.65683594 -5.9887207 15.29169922 -6.6262207 15.94580078 C-7.19179687 16.53756104 -7.75737305 17.12932129 -8.34008789 17.73901367 C-10.0793457 18.91064453 -10.0793457 18.91064453 -12.29516602 18.59594727 C-12.88394531 18.36979736 -13.47272461 18.14364746 -14.0793457 17.91064453 C-14.96606445 15.84033203 -14.96606445 15.84033203 -15.0793457 12.91064453 C-13.36297215 10.27235553 -11.16052287 8.2013089 -8.8918457 6.03564453 C-8.30081055 5.42978516 -7.70977539 4.82392578 -7.10083008 4.19970703 C-2.70165179 -0.11609775 -2.70165179 -0.11609775 0 0 Z " fill="#FFFDFA" transform="translate(91.079345703125,121.08935546875)"/>
</svg>
